<svg width="350" height="313" viewBox="0 0 350 313" fill="none" xmlns="http://www.w3.org/2000/svg">
<g clip-path="url(#clip0_1343_39316)">
<rect width="350" height="313" rx="20" fill="#FFD8D8"/>
<g filter="url(#filter0_d_1343_39316)">
<rect x="27" y="129" width="296" height="56" rx="18" fill="white" shape-rendering="crispEdges"/>
<path d="M48.815 155.513L51.705 152.079V150.6H43.596V152.453H49.002L46.299 155.666V157.179H47.387C49.189 157.179 49.971 157.876 49.971 158.947C49.971 160.052 49.036 160.749 47.455 160.749C46.112 160.749 44.82 160.29 43.97 159.576L43.018 161.293C44.123 162.16 45.806 162.67 47.489 162.67C50.685 162.67 52.198 160.936 52.198 158.93C52.198 157.145 51.059 155.802 48.815 155.513ZM59.1515 160.494C58.8285 160.749 58.4035 160.868 57.9615 160.868C57.1455 160.868 56.7035 160.392 56.7035 159.508V155.19H59.1345V153.49H56.7035V151.416H54.5785V153.49H53.0825V155.19H54.5785V159.559C54.5785 161.565 55.7175 162.619 57.7065 162.619C58.4715 162.619 59.2365 162.415 59.7465 162.007L59.1515 160.494ZM63.5176 154.748V153.422H61.4946V162.5H63.6196V158.097C63.6196 156.244 64.6396 155.292 66.2546 155.292C66.4076 155.292 66.5606 155.309 66.7476 155.343V153.32C65.2346 153.32 64.1296 153.796 63.5176 154.748ZM77.0012 158.012C77.0012 155.173 75.0632 153.32 72.4112 153.32C69.7082 153.32 67.7192 155.258 67.7192 157.961C67.7192 160.664 69.6912 162.619 72.7342 162.619C74.2982 162.619 75.5732 162.109 76.3892 161.14L75.2502 159.831C74.6042 160.494 73.8052 160.817 72.7852 160.817C71.2042 160.817 70.0992 159.967 69.8442 158.641H76.9672C76.9842 158.437 77.0012 158.182 77.0012 158.012ZM72.4112 155.02C73.8052 155.02 74.8082 155.921 74.9782 157.23H69.8272C70.0312 155.904 71.0342 155.02 72.4112 155.02ZM87.5764 158.012C87.5764 155.173 85.6384 153.32 82.9864 153.32C80.2834 153.32 78.2944 155.258 78.2944 157.961C78.2944 160.664 80.2664 162.619 83.3094 162.619C84.8734 162.619 86.1484 162.109 86.9644 161.14L85.8254 159.831C85.1794 160.494 84.3804 160.817 83.3604 160.817C81.7794 160.817 80.6744 159.967 80.4194 158.641H87.5424C87.5594 158.437 87.5764 158.182 87.5764 158.012ZM82.9864 155.02C84.3804 155.02 85.3834 155.921 85.5534 157.23H80.4024C80.6064 155.904 81.6094 155.02 82.9864 155.02ZM90.2976 162.619C91.0626 162.619 91.6916 162.024 91.6916 161.208C91.6916 160.358 91.0626 159.797 90.2976 159.797C89.5326 159.797 88.9036 160.358 88.9036 161.208C88.9036 162.024 89.5326 162.619 90.2976 162.619ZM94.839 151.926C95.638 151.926 96.199 151.348 96.199 150.6C96.199 149.903 95.621 149.376 94.839 149.376C94.057 149.376 93.479 149.937 93.479 150.651C93.479 151.365 94.057 151.926 94.839 151.926ZM93.768 162.5H95.893V153.422H93.768V162.5ZM102.762 162.619C105.584 162.619 107.607 160.681 107.607 157.961C107.607 155.241 105.584 153.32 102.762 153.32C99.9741 153.32 97.9341 155.241 97.9341 157.961C97.9341 160.681 99.9741 162.619 102.762 162.619ZM102.762 160.8C101.232 160.8 100.076 159.695 100.076 157.961C100.076 156.227 101.232 155.122 102.762 155.122C104.309 155.122 105.465 156.227 105.465 157.961C105.465 159.695 104.309 160.8 102.762 160.8ZM107.735 164.2H109.639L115.249 148.186H113.345L107.735 164.2Z" fill="#686F7E"/>
<path d="M123.428 150.447C118.566 150.447 115.302 153.728 115.302 158.182C115.302 162.687 118.532 165.968 123.36 165.968C124.618 165.968 126.08 165.696 127.117 165.169L126.658 163.809C125.621 164.336 124.397 164.557 123.36 164.557C119.45 164.557 116.866 161.939 116.866 158.182C116.866 154.476 119.484 151.841 123.428 151.841C127.304 151.841 129.956 154.289 129.956 157.927C129.956 159.933 129.446 161.004 128.528 161.004C128.052 161.004 127.644 160.715 127.644 159.848V154.068H125.757V155.173C125.094 154.374 124.108 153.966 122.918 153.966C120.572 153.966 118.838 155.751 118.838 158.267C118.838 160.817 120.572 162.602 122.918 162.602C124.278 162.602 125.315 162.092 125.978 161.123C126.267 162.092 127.049 162.602 128.137 162.602C130.177 162.602 131.401 160.834 131.401 157.893C131.401 153.558 128.12 150.447 123.428 150.447ZM123.275 160.953C121.796 160.953 120.759 159.916 120.759 158.267C120.759 156.635 121.796 155.615 123.275 155.615C124.703 155.615 125.791 156.584 125.791 158.267C125.791 159.967 124.703 160.953 123.275 160.953ZM137.75 155.513L140.64 152.079V150.6H132.531V152.453H137.937L135.234 155.666V157.179H136.322C138.124 157.179 138.906 157.876 138.906 158.947C138.906 160.052 137.971 160.749 136.39 160.749C135.047 160.749 133.755 160.29 132.905 159.576L131.953 161.293C133.058 162.16 134.741 162.67 136.424 162.67C139.62 162.67 141.133 160.936 141.133 158.93C141.133 157.145 139.994 155.802 137.75 155.513ZM145.726 162.5H147.936V152.47H151.88V150.6H141.782V152.47H145.726V162.5ZM163.704 162.5L160.967 158.59C162.582 157.961 163.5 156.635 163.5 154.833C163.5 152.198 161.562 150.6 158.434 150.6H153.538V162.5H155.748V159.032H158.434C158.587 159.032 158.74 159.032 158.893 159.015L161.324 162.5H163.704ZM161.273 154.833C161.273 156.329 160.27 157.213 158.332 157.213H155.748V152.47H158.332C160.27 152.47 161.273 153.337 161.273 154.833ZM168.183 160.647V157.366H173.929V155.547H168.183V152.453H174.66V150.6H165.973V162.5H174.898V160.647H168.183ZM179.572 160.647V157.366H185.318V155.547H179.572V152.453H186.049V150.6H177.362V162.5H186.287V160.647H179.572Z" fill="#273146"/>
<rect x="27.5" y="129.5" width="295" height="55" rx="17.5" stroke="#FFF0F0" shape-rendering="crispEdges"/>
</g>
<path d="M313.491 96.7721C313.872 95.7426 315.328 95.7426 315.709 96.7721L317.605 101.896C317.725 102.22 317.98 102.475 318.304 102.595L323.428 104.491C324.457 104.872 324.457 106.328 323.428 106.709L318.304 108.605C317.98 108.725 317.725 108.98 317.605 109.304L315.709 114.428C315.328 115.457 313.872 115.457 313.491 114.428L311.595 109.304C311.475 108.98 311.22 108.725 310.896 108.605L305.772 106.709C304.743 106.328 304.743 104.872 305.772 104.491L310.896 102.595C311.22 102.475 311.475 102.22 311.595 101.896L313.491 96.7721Z" fill="#FFEBEB"/>
<path d="M274.594 80.3271C275.249 78.5576 277.751 78.5576 278.406 80.3271L281.665 89.1342C281.871 89.6905 282.309 90.1291 282.866 90.335L291.673 93.5939C293.442 94.2487 293.442 96.7513 291.673 97.4061L282.866 100.665C282.309 100.871 281.871 101.309 281.665 101.866L278.406 110.673C277.751 112.442 275.249 112.442 274.594 110.673L271.335 101.866C271.129 101.309 270.691 100.871 270.134 100.665L261.327 97.4061C259.558 96.7513 259.558 94.2487 261.327 93.5939L270.134 90.335C270.691 90.1291 271.129 89.6905 271.335 89.1342L274.594 80.3271Z" fill="#FFEBEB"/>
<path d="M71.5939 203.327C72.2487 201.558 74.7513 201.558 75.4061 203.327L78.665 212.134C78.8709 212.691 79.3095 213.129 79.8658 213.335L88.6729 216.594C90.4424 217.249 90.4424 219.751 88.6729 220.406L79.8658 223.665C79.3095 223.871 78.8709 224.309 78.665 224.866L75.4061 233.673C74.7513 235.442 72.2487 235.442 71.5939 233.673L68.335 224.866C68.1291 224.309 67.6905 223.871 67.1342 223.665L58.3271 220.406C56.5576 219.751 56.5576 217.249 58.3271 216.594L67.1342 213.335C67.6905 213.129 68.1291 212.691 68.335 212.134L71.5939 203.327Z" fill="#FFEBEB"/>
<path d="M35.491 219.772C35.8719 218.743 37.3281 218.743 37.709 219.772L39.6051 224.896C39.7249 225.22 39.9801 225.475 40.3037 225.595L45.4279 227.491C46.4574 227.872 46.4574 229.328 45.4279 229.709L40.3037 231.605C39.9801 231.725 39.7249 231.98 39.6051 232.304L37.709 237.428C37.3281 238.457 35.8719 238.457 35.491 237.428L33.5949 232.304C33.4751 231.98 33.2199 231.725 32.8963 231.605L27.7721 229.709C26.7426 229.328 26.7426 227.872 27.7721 227.491L32.8963 225.595C33.2199 225.475 33.4751 225.22 33.5949 224.896L35.491 219.772Z" fill="#FFEBEB"/>
</g>
<defs>
<filter id="filter0_d_1343_39316" x="-7" y="109" width="364" height="124" filterUnits="userSpaceOnUse" color-interpolation-filters="sRGB">
<feFlood flood-opacity="0" result="BackgroundImageFix"/>
<feColorMatrix in="SourceAlpha" type="matrix" values="0 0 0 0 0 0 0 0 0 0 0 0 0 0 0 0 0 0 127 0" result="hardAlpha"/>
<feOffset dy="14"/>
<feGaussianBlur stdDeviation="17"/>
<feComposite in2="hardAlpha" operator="out"/>
<feColorMatrix type="matrix" values="0 0 0 0 0.954167 0 0 0 0 0.604306 0 0 0 0 0.604306 0 0 0 0.3 0"/>
<feBlend mode="normal" in2="BackgroundImageFix" result="effect1_dropShadow_1343_39316"/>
<feBlend mode="normal" in="SourceGraphic" in2="effect1_dropShadow_1343_39316" result="shape"/>
</filter>
<clipPath id="clip0_1343_39316">
<rect width="350" height="313" rx="20" fill="white"/>
</clipPath>
</defs>
</svg>
