<svg width="18" height="18" viewBox="0 0 18 18" fill="none" xmlns="http://www.w3.org/2000/svg">
<path d="M8.07534 1.64344C8.3928 0.785522 9.60622 0.785521 9.92368 1.64344L11.5038 5.91355C11.6036 6.18328 11.8162 6.39594 12.086 6.49575L16.3561 8.07583C17.214 8.39329 17.214 9.60671 16.3561 9.92417L12.086 11.5043C11.8162 11.6041 11.6036 11.8167 11.5038 12.0864L9.92368 16.3566C9.60622 17.2145 8.3928 17.2145 8.07534 16.3566L6.49526 12.0864C6.39545 11.8167 6.18279 11.6041 5.91306 11.5043L1.64295 9.92417C0.785034 9.60671 0.785032 8.39329 1.64295 8.07583L5.91306 6.49575C6.18279 6.39594 6.39545 6.18328 6.49526 5.91355L8.07534 1.64344Z" stroke="white" stroke-width="2" stroke-linejoin="round"/>
</svg>
