<svg width="20" height="20" viewBox="0 0 20 20" fill="none" xmlns="http://www.w3.org/2000/svg">
<g clip-path="url(#clip0_529_17008)">
<circle cx="10" cy="10" r="6" fill="#1BBE97"/>
<circle cx="10" cy="10" r="10" fill="#1BBE97"/>
<path d="M6.26943 9.78553C5.87484 9.36058 5.21047 9.33597 4.78553 9.73057C4.36058 10.1252 4.33597 10.7895 4.73057 11.2145L6.26943 9.78553ZM8.75 14L7.98057 14.7145C8.18167 14.931 8.46472 15.0528 8.76025 15.0499C9.05577 15.0471 9.3364 14.9198 9.53323 14.6993L8.75 14ZM15.7832 7.69932C16.1695 7.26675 16.1319 6.60299 15.6993 6.21677C15.2667 5.83054 14.603 5.86811 14.2168 6.30068L15.7832 7.69932ZM4.73057 11.2145L7.98057 14.7145L9.51943 13.2855L6.26943 9.78553L4.73057 11.2145ZM9.53323 14.6993L15.7832 7.69932L14.2168 6.30068L7.96677 13.3007L9.53323 14.6993Z" fill="white"/>
</g>
<defs>
<clipPath id="clip0_529_17008">
<rect width="20" height="20" fill="white"/>
</clipPath>
</defs>
</svg>
