<svg width="11" height="11" viewBox="0 0 11 11" fill="none" xmlns="http://www.w3.org/2000/svg">
<g clip-path="url(#clip0_183_5226)">
<path d="M9.625 5.12286V5.50236C9.62449 6.39188 9.33645 7.25741 8.80385 7.96986C8.27124 8.68231 7.5226 9.20351 6.66958 9.45572C5.81656 9.70793 4.90487 9.67764 4.07047 9.36937C3.23607 9.06111 2.52367 8.49137 2.03952 7.74515C1.55537 6.99892 1.32541 6.11619 1.38394 5.22859C1.44247 4.34099 1.78635 3.49609 2.36429 2.8199C2.94223 2.14371 3.72327 1.67246 4.59093 1.47642C5.45858 1.28039 6.36636 1.37008 7.17888 1.73211" stroke="#1BBE97" stroke-width="2" stroke-linecap="round" stroke-linejoin="round"/>
<path d="M9.625 2.0625L5.39423 6.1875L4.125 4.95124" stroke="#1BBE97" stroke-width="2" stroke-linecap="round" stroke-linejoin="round"/>
</g>
<defs>
<clipPath id="clip0_183_5226">
<rect width="11" height="11" fill="white"/>
</clipPath>
</defs>
</svg>
