<svg width="32" height="32" viewBox="0 0 32 32" fill="none" xmlns="http://www.w3.org/2000/svg">
<rect width="32" height="32" rx="8" fill="#F6F9FE"/>
<g clip-path="url(#clip0_141_5086)">
<path d="M14.333 16.8335C14.6909 17.3119 15.1475 17.7078 15.6718 17.9943C16.1961 18.2807 16.7759 18.4511 17.3719 18.4937C17.9678 18.5364 18.566 18.4504 19.1258 18.2416C19.6856 18.0328 20.1939 17.706 20.6163 17.2835L23.1163 14.7835C23.8753 13.9976 24.2953 12.9451 24.2858 11.8526C24.2763 10.7601 23.8381 9.71509 23.0656 8.94256C22.2931 8.17002 21.248 7.73182 20.1555 7.72233C19.063 7.71283 18.0105 8.13281 17.2247 8.8918L15.7913 10.3168" stroke="#6D99F1" stroke-width="1.66667" stroke-linecap="round" stroke-linejoin="round"/>
<path d="M17.6668 15.1665C17.309 14.6881 16.8524 14.2922 16.328 14.0057C15.8037 13.7193 15.2239 13.5489 14.628 13.5063C14.032 13.4636 13.4338 13.5496 12.874 13.7584C12.3142 13.9672 11.8059 14.294 11.3835 14.7165L8.8835 17.2165C8.12451 18.0024 7.70453 19.0549 7.71402 20.1474C7.72352 21.2399 8.16172 22.2849 8.93426 23.0574C9.70679 23.83 10.7518 24.2682 11.8443 24.2777C12.9368 24.2872 13.9893 23.8672 14.7752 23.1082L16.2002 21.6832" stroke="#6D99F1" stroke-width="1.66667" stroke-linecap="round" stroke-linejoin="round"/>
</g>
<defs>
<clipPath id="clip0_141_5086">
<rect width="20" height="20" fill="white" transform="translate(6 6)"/>
</clipPath>
</defs>
</svg>
