<svg width="32" height="32" viewBox="0 0 32 32" fill="none" xmlns="http://www.w3.org/2000/svg">
<path d="M24.6476 6.67432L17.1523 12.2412L18.5384 8.9568L24.6476 6.67432Z" fill="#E2761B" stroke="#E2761B" stroke-width="0.100439" stroke-linecap="round" stroke-linejoin="round"/>
<path d="M7.34473 6.67432L14.7798 12.2939L13.4615 8.9568L7.34473 6.67432Z" fill="#E4761B" stroke="#E4761B" stroke-width="0.100439" stroke-linecap="round" stroke-linejoin="round"/>
<path d="M21.9513 19.5781L19.9551 22.6365L24.2263 23.8116L25.4541 19.6459L21.9513 19.5781Z" fill="#E4761B" stroke="#E4761B" stroke-width="0.100439" stroke-linecap="round" stroke-linejoin="round"/>
<path d="M6.55371 19.6459L7.77405 23.8116L12.0452 22.6365L10.049 19.5781L6.55371 19.6459Z" fill="#E4761B" stroke="#E4761B" stroke-width="0.100439" stroke-linecap="round" stroke-linejoin="round"/>
<path d="M11.8045 14.4105L10.6143 16.2109L14.8553 16.3992L14.7047 11.8418L11.8045 14.4105Z" fill="#E4761B" stroke="#E4761B" stroke-width="0.100439" stroke-linecap="round" stroke-linejoin="round"/>
<path d="M20.1881 14.4105L17.2503 11.7891L17.1523 16.3992L21.3859 16.2109L20.1881 14.4105Z" fill="#E4761B" stroke="#E4761B" stroke-width="0.100439" stroke-linecap="round" stroke-linejoin="round"/>
<path d="M12.0449 22.6367L14.5911 21.3938L12.3914 19.6763L12.0449 22.6367Z" fill="#E4761B" stroke="#E4761B" stroke-width="0.100439" stroke-linecap="round" stroke-linejoin="round"/>
<path d="M17.4014 21.3938L19.955 22.6367L19.601 19.6763L17.4014 21.3938Z" fill="#E4761B" stroke="#E4761B" stroke-width="0.100439" stroke-linecap="round" stroke-linejoin="round"/>
<path d="M19.9541 22.6365L17.4004 21.3936L17.6038 23.0583L17.5812 23.7589L19.9541 22.6365Z" fill="#D7C1B3" stroke="#D7C1B3" stroke-width="0.100439" stroke-linecap="round" stroke-linejoin="round"/>
<path d="M12.0449 22.6365L14.4178 23.7589L14.4027 23.0583L14.5911 21.3936L12.0449 22.6365Z" fill="#D7C1B3" stroke="#D7C1B3" stroke-width="0.100439" stroke-linecap="round" stroke-linejoin="round"/>
<path d="M14.4553 18.5764L12.3311 17.9511L13.8301 17.2656L14.4553 18.5764Z" fill="#233447" stroke="#233447" stroke-width="0.100439" stroke-linecap="round" stroke-linejoin="round"/>
<path d="M17.5371 18.5764L18.1623 17.2656L19.6689 17.9511L17.5371 18.5764Z" fill="#233447" stroke="#233447" stroke-width="0.100439" stroke-linecap="round" stroke-linejoin="round"/>
<path d="M12.0451 22.6365L12.4066 19.5781L10.0488 19.6459L12.0451 22.6365Z" fill="#CD6116" stroke="#CD6116" stroke-width="0.100439" stroke-linecap="round" stroke-linejoin="round"/>
<path d="M19.5928 19.5781L19.9544 22.6365L21.9506 19.6459L19.5928 19.5781Z" fill="#CD6116" stroke="#CD6116" stroke-width="0.100439" stroke-linecap="round" stroke-linejoin="round"/>
<path d="M21.3859 16.2109L17.1523 16.3993L17.5441 18.5763L18.1693 17.2656L19.6759 17.951L21.3859 16.2109Z" fill="#CD6116" stroke="#CD6116" stroke-width="0.100439" stroke-linecap="round" stroke-linejoin="round"/>
<path d="M12.3308 17.951L13.8374 17.2656L14.4551 18.5763L14.8543 16.3993L10.6133 16.2109L12.3308 17.951Z" fill="#CD6116" stroke="#CD6116" stroke-width="0.100439" stroke-linecap="round" stroke-linejoin="round"/>
<path d="M10.6143 16.2109L12.392 19.6761L12.3318 17.951L10.6143 16.2109Z" fill="#E4751F" stroke="#E4751F" stroke-width="0.100439" stroke-linecap="round" stroke-linejoin="round"/>
<path d="M19.6759 17.9511L19.6006 19.6761L21.3859 16.2109L19.6759 17.9511Z" fill="#E4751F" stroke="#E4751F" stroke-width="0.100439" stroke-linecap="round" stroke-linejoin="round"/>
<path d="M14.8553 16.3994L14.4561 18.5764L14.9532 21.1452L15.0662 17.7629L14.8553 16.3994Z" fill="#E4751F" stroke="#E4751F" stroke-width="0.100439" stroke-linecap="round" stroke-linejoin="round"/>
<path d="M17.1526 16.3994L16.9492 17.7553L17.0396 21.1452L17.5443 18.5764L17.1526 16.3994Z" fill="#E4751F" stroke="#E4751F" stroke-width="0.100439" stroke-linecap="round" stroke-linejoin="round"/>
<path d="M17.5438 18.5764L17.0391 21.1451L17.4006 21.3937L19.6003 19.6762L19.6756 17.9512L17.5438 18.5764Z" fill="#F6851B" stroke="#F6851B" stroke-width="0.100439" stroke-linecap="round" stroke-linejoin="round"/>
<path d="M12.3311 17.9512L12.3913 19.6762L14.5909 21.3937L14.9525 21.1451L14.4553 18.5764L12.3311 17.9512Z" fill="#F6851B" stroke="#F6851B" stroke-width="0.100439" stroke-linecap="round" stroke-linejoin="round"/>
<path d="M17.5816 23.7591L17.6042 23.0586L17.4159 22.8928H14.576L14.4027 23.0586L14.4178 23.7591L12.0449 22.6367L12.8735 23.3147L14.5534 24.4823H17.4385L19.1259 23.3147L19.9545 22.6367L17.5816 23.7591Z" fill="#C0AD9E" stroke="#C0AD9E" stroke-width="0.100439" stroke-linecap="round" stroke-linejoin="round"/>
<path d="M17.4014 21.3936L17.0399 21.145H14.9532L14.5916 21.3936L14.4033 23.0584L14.5766 22.8927H17.4165L17.6048 23.0584L17.4014 21.3936Z" fill="#161616" stroke="#161616" stroke-width="0.100439" stroke-linecap="round" stroke-linejoin="round"/>
<path d="M24.9645 12.6028L25.6048 9.52931L24.6481 6.67432L17.4014 12.0528L20.1886 14.4107L24.1283 15.5632L25.0021 14.5463L24.6255 14.2751L25.2281 13.7252L24.7611 13.3636L25.3637 12.9041L24.9645 12.6028Z" fill="#763D16" stroke="#763D16" stroke-width="0.100439" stroke-linecap="round" stroke-linejoin="round"/>
<path d="M6.39551 9.52931L7.03581 12.6028L6.62903 12.9041L7.23167 13.3636L6.77216 13.7252L7.37479 14.2751L6.99814 14.5463L7.86443 15.5632L11.8042 14.4107L14.5914 12.0528L7.34466 6.67432L6.39551 9.52931Z" fill="#763D16" stroke="#763D16" stroke-width="0.100439" stroke-linecap="round" stroke-linejoin="round"/>
<path d="M24.1279 15.5632L20.1882 14.4106L21.3859 16.211L19.6006 19.6762L21.9509 19.646H25.4537L24.1279 15.5632Z" fill="#F6851B" stroke="#F6851B" stroke-width="0.100439" stroke-linecap="round" stroke-linejoin="round"/>
<path d="M11.8042 14.4106L7.86445 15.5632L6.55371 19.646H10.049L12.3918 19.6762L10.614 16.211L11.8042 14.4106Z" fill="#F6851B" stroke="#F6851B" stroke-width="0.100439" stroke-linecap="round" stroke-linejoin="round"/>
<path d="M17.1521 16.3991L17.4007 12.0526L18.5457 8.95654H13.4609L14.5909 12.0526L14.8545 16.3991L14.9449 17.7701L14.9525 21.1449H17.0391L17.0542 17.7701L17.1521 16.3991Z" fill="#F6851B" stroke="#F6851B" stroke-width="0.100439" stroke-linecap="round" stroke-linejoin="round"/>
</svg>
