<svg width="20" height="20" viewBox="0 0 20 20" fill="none" xmlns="http://www.w3.org/2000/svg">
<g clip-path="url(#clip0_2888_49598)">
<path d="M14.0828 7.26267C13.7912 7.0955 13.4162 7.0955 13.0828 7.26267L10.7495 8.64177L9.16618 9.51938L6.87451 10.8985C6.58284 11.0657 6.20785 11.0657 5.87451 10.8985L4.08284 9.81192C3.79118 9.64476 3.58284 9.31043 3.58284 8.93431V6.84476C3.58284 6.51043 3.74951 6.1761 4.08284 5.96715L5.87451 4.92237C6.16618 4.75521 6.54118 4.75521 6.87451 4.92237L8.66618 6.00894C8.95784 6.1761 9.16618 6.51043 9.16618 6.88655V8.26565L10.7495 7.34625V5.92535C10.7495 5.59103 10.5828 5.2567 10.2495 5.04774L6.91618 3.08356C6.62451 2.9164 6.24951 2.9164 5.91618 3.08356L2.49951 5.08953C2.16618 5.2567 1.99951 5.59103 1.99951 5.92535V9.85371C1.99951 10.188 2.16618 10.5224 2.49951 10.7313L5.87451 12.6955C6.16618 12.8627 6.54118 12.8627 6.87451 12.6955L9.16618 11.3582L10.7495 10.4388L13.0412 9.10147C13.3328 8.93431 13.7078 8.93431 14.0412 9.10147L15.8328 10.1463C16.1245 10.3134 16.3328 10.6477 16.3328 11.0239V13.1134C16.3328 13.4477 16.1662 13.7821 15.8328 13.991L14.0828 15.0358C13.7912 15.203 13.4162 15.203 13.0828 15.0358L11.2912 13.991C10.9995 13.8239 10.7912 13.4895 10.7912 13.1134V11.7761L9.20784 12.6955V14.0746C9.20784 14.4089 9.37451 14.7433 9.70784 14.9522L13.0828 16.9164C13.3745 17.0836 13.7495 17.0836 14.0828 16.9164L17.4578 14.9522C17.7495 14.7851 17.9578 14.4507 17.9578 14.0746V10.1045C17.9578 9.77013 17.7912 9.4358 17.4578 9.22685L14.0828 7.26267Z" fill="white"/>
</g>
<defs>
<clipPath id="clip0_2888_49598">
<rect width="16" height="14" fill="white" transform="translate(1.99951 3)"/>
</clipPath>
</defs>
</svg>
