<svg width="24" height="24" viewBox="0 0 24 24" fill="none" xmlns="http://www.w3.org/2000/svg">
<rect width="24" height="24" rx="12" fill="#8247E5"/>
<rect width="24" height="24" rx="12" fill="url(#paint0_linear_1594_51404)" fill-opacity="0.3"/>
<path d="M15.6665 9.35865C15.4008 9.19924 15.0554 9.19924 14.7632 9.35865L12.6908 10.5808L11.2827 11.3778L9.21038 12.6C8.9447 12.7594 8.59931 12.7594 8.30706 12.6L6.65983 11.6435C6.39415 11.4841 6.20817 11.1919 6.20817 10.873V8.98669C6.20817 8.66787 6.36758 8.37562 6.65983 8.21621L8.28049 7.28632C8.54618 7.12691 8.89156 7.12691 9.18382 7.28632L10.8045 8.21621C11.0702 8.37562 11.2561 8.66787 11.2561 8.98669V10.2088L12.6643 9.38522V8.16307C12.6643 7.84426 12.5049 7.552 12.2126 7.39259L9.21038 5.63909C8.9447 5.47968 8.59931 5.47968 8.30706 5.63909L5.25171 7.39259C4.95946 7.552 4.80005 7.84426 4.80005 8.16307V11.6967C4.80005 12.0155 4.95946 12.3077 5.25171 12.4671L8.30706 14.2206C8.57275 14.3801 8.91813 14.3801 9.21038 14.2206L11.2827 13.0251L12.6908 12.2015L14.7632 11.0059C15.0288 10.8465 15.3742 10.8465 15.6665 11.0059L17.2871 11.9358C17.5528 12.0952 17.7388 12.3874 17.7388 12.7063V14.5926C17.7388 14.9114 17.5794 15.2037 17.2871 15.3631L15.6665 16.3195C15.4008 16.4789 15.0554 16.4789 14.7632 16.3195L13.1425 15.3896C12.8768 15.2302 12.6908 14.938 12.6908 14.6192V13.397L11.2827 14.2206V15.4428C11.2827 15.7616 11.4421 16.0539 11.7344 16.2133L14.7897 17.9668C15.0554 18.1262 15.4008 18.1262 15.693 17.9668L18.7484 16.2133C19.0141 16.0539 19.2001 15.7616 19.2001 15.4428V11.9092C19.2001 11.5904 19.0407 11.2981 18.7484 11.1387L15.6665 9.35865Z" fill="white"/>
<defs>
<linearGradient id="paint0_linear_1594_51404" x1="0" y1="0" x2="12" y2="24" gradientUnits="userSpaceOnUse">
<stop stop-color="white"/>
<stop offset="1" stop-color="white" stop-opacity="0"/>
</linearGradient>
</defs>
</svg>
