<svg width="32" height="32" viewBox="0 0 32 32" fill="none" xmlns="http://www.w3.org/2000/svg">
<path d="M12.1602 12.1592V11.1592C11.6079 11.1592 11.1602 11.6069 11.1602 12.1592H12.1602ZM12.2877 12.1592H13.2877C13.2877 11.6069 12.84 11.1592 12.2877 11.1592V12.1592ZM19.8402 12.1592V11.1592C19.2879 11.1592 18.8402 11.6069 18.8402 12.1592H19.8402ZM19.9535 12.1592H20.9535C20.9535 11.6069 20.5058 11.1592 19.9535 11.1592V12.1592ZM12.2877 12.2617V13.2617C12.84 13.2617 13.2877 12.814 13.2877 12.2617H12.2877ZM12.1602 12.2617H11.1602C11.1602 12.814 11.6079 13.2617 12.1602 13.2617V12.2617ZM19.9535 12.2617V13.2617C20.5058 13.2617 20.9535 12.814 20.9535 12.2617H19.9535ZM19.8402 12.2617H18.8402C18.8402 12.814 19.2879 13.2617 19.8402 13.2617V12.2617ZM16.0001 19.2043L16.0001 18.2043L16.0001 19.2043ZM19.5872 22.2384C19.8779 22.708 20.4942 22.853 20.9638 22.5623C21.4334 22.2716 21.5785 21.6553 21.2878 21.1857L19.5872 22.2384ZM10.7124 21.1857C10.4217 21.6553 10.5668 22.2716 11.0364 22.5623C11.506 22.853 12.1223 22.708 12.413 22.2384L10.7124 21.1857ZM27.8002 15.9992C27.8002 22.5162 22.5172 27.7992 16.0002 27.7992V29.7992C23.6217 29.7992 29.8002 23.6207 29.8002 15.9992H27.8002ZM16.0002 27.7992C9.48323 27.7992 4.2002 22.5162 4.2002 15.9992H2.2002C2.2002 23.6207 8.37866 29.7992 16.0002 29.7992V27.7992ZM4.2002 15.9992C4.2002 9.48226 9.48323 4.19922 16.0002 4.19922V2.19922C8.37866 2.19922 2.2002 8.37769 2.2002 15.9992H4.2002ZM16.0002 4.19922C22.5172 4.19922 27.8002 9.48226 27.8002 15.9992H29.8002C29.8002 8.37769 23.6217 2.19922 16.0002 2.19922V4.19922ZM12.1602 13.1592H12.2877V11.1592H12.1602V13.1592ZM19.8402 13.1592H19.9535V11.1592H19.8402V13.1592ZM11.2877 12.1592V12.2617H13.2877V12.1592H11.2877ZM12.2877 11.2617H12.1602V13.2617H12.2877V11.2617ZM13.1602 12.2617V12.1592H11.1602V12.2617H13.1602ZM18.9535 12.1592V12.2617H20.9535V12.1592H18.9535ZM19.9535 11.2617H19.8402V13.2617H19.9535V11.2617ZM20.8402 12.2617V12.1592H18.8402V12.2617H20.8402ZM16.0001 20.2043C17.4963 20.2043 18.8238 21.005 19.5872 22.2384L21.2878 21.1857C20.1847 19.4037 18.235 18.2043 16.0001 18.2043L16.0001 20.2043ZM12.413 22.2384C13.1764 21.005 14.5039 20.2043 16.0001 20.2043L16.0001 18.2043C13.7652 18.2043 11.8155 19.4037 10.7124 21.1857L12.413 22.2384Z" fill="white"/>
</svg>
