<svg width="21" height="21" viewBox="0 0 21 21" fill="none" xmlns="http://www.w3.org/2000/svg">
<path fill-rule="evenodd" clip-rule="evenodd" d="M18.1795 10.6818C18.1795 10.1145 18.1286 9.56905 18.0341 9.04541H10.4995V12.14H14.805C14.6195 13.14 14.0559 13.9872 13.2086 14.5545V16.5618H15.7941C17.3068 15.169 18.1795 13.1181 18.1795 10.6818Z" fill="#4285F4"/>
<path fill-rule="evenodd" clip-rule="evenodd" d="M10.4996 18.5C12.6596 18.5 14.4705 17.7837 15.7941 16.5618L13.2086 14.5546C12.4923 15.0346 11.5759 15.3182 10.4996 15.3182C8.41592 15.3182 6.65228 13.9109 6.02319 12.02H3.35046V14.0927C4.66683 16.7073 7.37228 18.5 10.4996 18.5Z" fill="#34A853"/>
<path fill-rule="evenodd" clip-rule="evenodd" d="M6.02315 12.0198C5.86315 11.5398 5.77224 11.0271 5.77224 10.4998C5.77224 9.97256 5.86315 9.45983 6.02315 8.97983V6.9071H3.35042C2.8086 7.9871 2.49951 9.20892 2.49951 10.4998C2.49951 11.7907 2.8086 13.0126 3.35042 14.0926L6.02315 12.0198Z" fill="#FBBC05"/>
<path fill-rule="evenodd" clip-rule="evenodd" d="M10.4996 5.68182C11.6741 5.68182 12.7286 6.08545 13.5577 6.87818L15.8523 4.58364C14.4668 3.29273 12.6559 2.5 10.4996 2.5C7.37228 2.5 4.66683 4.29273 3.35046 6.90727L6.02319 8.98C6.65228 7.08909 8.41592 5.68182 10.4996 5.68182Z" fill="#EA4335"/>
</svg>
