<svg width="32" height="32" viewBox="0 0 32 32" fill="none" xmlns="http://www.w3.org/2000/svg">
<path d="M32 16C32 7.16344 24.8366 0 16 0C7.16344 0 0 7.16344 0 16C0 24.8366 7.16344 32 16 32C24.8366 32 32 24.8366 32 16Z" fill="url(#paint0_radial_376_6773)"/>
<path d="M10.5756 11.5332C13.5714 8.60009 18.4286 8.60009 21.4244 11.5332L21.785 11.8862C21.9348 12.0329 21.9348 12.2707 21.785 12.4173L20.5516 13.6249C20.4767 13.6982 20.3553 13.6982 20.2804 13.6249L19.7842 13.1391C17.6943 11.0929 14.3058 11.0929 12.2158 13.1391L11.6845 13.6594C11.6096 13.7327 11.4881 13.7327 11.4132 13.6594L10.1799 12.4518C10.0301 12.3051 10.0301 12.0674 10.1799 11.9207L10.5756 11.5332ZM23.9751 14.0306L25.0728 15.1054C25.2226 15.252 25.2226 15.4898 25.0728 15.6365L20.1232 20.4826C19.9734 20.6293 19.7306 20.6293 19.5808 20.4826C19.5808 20.4826 19.5808 20.4826 19.5808 20.4826L16.0678 17.0432C16.0304 17.0065 15.9697 17.0065 15.9322 17.0432C15.9322 17.0432 15.9322 17.0432 15.9322 17.0432L12.4194 20.4826C12.2696 20.6293 12.0267 20.6293 11.8769 20.4826C11.8769 20.4826 11.8769 20.4826 11.8769 20.4826L6.92716 15.6364C6.77737 15.4897 6.77737 15.252 6.92716 15.1053L8.02487 14.0306C8.17466 13.8839 8.41752 13.8839 8.56731 14.0306L12.0803 17.4701C12.1177 17.5067 12.1785 17.5067 12.2159 17.4701C12.2159 17.4701 12.2159 17.4701 12.2159 17.4701L15.7287 14.0306C15.8785 13.8839 16.1214 13.8839 16.2712 14.0306C16.2712 14.0306 16.2712 14.0306 16.2712 14.0306L19.7842 17.4701C19.8216 17.5067 19.8823 17.5067 19.9198 17.4701L23.4327 14.0306C23.5825 13.884 23.8253 13.884 23.9751 14.0306Z" fill="white"/>
<defs>
<radialGradient id="paint0_radial_376_6773" cx="0" cy="0" r="1" gradientUnits="userSpaceOnUse" gradientTransform="translate(0 16) scale(32)">
<stop stop-color="#5D9DF6"/>
<stop offset="1" stop-color="#006FFF"/>
</radialGradient>
</defs>
</svg>
