<svg width="32" height="32" viewBox="0 0 32 32" fill="none" xmlns="http://www.w3.org/2000/svg">
<path d="M27.5306 3.56567L17.5369 10.9881L19.385 6.60899L27.5306 3.56567Z" fill="#E2761B" stroke="#E2761B" stroke-width="0.100439" stroke-linecap="round" stroke-linejoin="round"/>
<path d="M4.46021 3.56555L14.3736 11.0583L12.6159 6.60887L4.46021 3.56555Z" fill="#E4761B" stroke="#E4761B" stroke-width="0.100439" stroke-linecap="round" stroke-linejoin="round"/>
<path d="M23.9352 20.7709L21.2736 24.8487L26.9685 26.4156L28.6056 20.8613L23.9352 20.7709Z" fill="#E4761B" stroke="#E4761B" stroke-width="0.100439" stroke-linecap="round" stroke-linejoin="round"/>
<path d="M3.40552 20.8613L5.03264 26.4156L10.7276 24.8487L8.06591 20.7709L3.40552 20.8613Z" fill="#E4761B" stroke="#E4761B" stroke-width="0.100439" stroke-linecap="round" stroke-linejoin="round"/>
<path d="M10.4061 13.8807L8.81915 16.2812L14.4739 16.5323L14.273 10.4557L10.4061 13.8807Z" fill="#E4761B" stroke="#E4761B" stroke-width="0.100439" stroke-linecap="round" stroke-linejoin="round"/>
<path d="M21.5852 13.8807L17.668 10.3854L17.5375 16.5323L23.1822 16.2812L21.5852 13.8807Z" fill="#E4761B" stroke="#E4761B" stroke-width="0.100439" stroke-linecap="round" stroke-linejoin="round"/>
<path d="M10.7275 24.8486L14.1224 23.1914L11.1896 20.9014L10.7275 24.8486Z" fill="#E4761B" stroke="#E4761B" stroke-width="0.100439" stroke-linecap="round" stroke-linejoin="round"/>
<path d="M17.8687 23.1914L21.2735 24.8486L20.8015 20.9014L17.8687 23.1914Z" fill="#E4761B" stroke="#E4761B" stroke-width="0.100439" stroke-linecap="round" stroke-linejoin="round"/>
<path d="M21.2725 24.8488L17.8676 23.1915L18.1388 25.4112L18.1087 26.3453L21.2725 24.8488Z" fill="#D7C1B3" stroke="#D7C1B3" stroke-width="0.100439" stroke-linecap="round" stroke-linejoin="round"/>
<path d="M10.7266 24.8488L13.8904 26.3453L13.8703 25.4112L14.1214 23.1915L10.7266 24.8488Z" fill="#D7C1B3" stroke="#D7C1B3" stroke-width="0.100439" stroke-linecap="round" stroke-linejoin="round"/>
<path d="M13.9409 19.435L11.1085 18.6014L13.1073 17.6874L13.9409 19.435Z" fill="#233447" stroke="#233447" stroke-width="0.100439" stroke-linecap="round" stroke-linejoin="round"/>
<path d="M18.0491 19.435L18.8827 17.6874L20.8915 18.6014L18.0491 19.435Z" fill="#233447" stroke="#233447" stroke-width="0.100439" stroke-linecap="round" stroke-linejoin="round"/>
<path d="M10.7269 24.8487L11.209 20.7709L8.06525 20.8613L10.7269 24.8487Z" fill="#CD6116" stroke="#CD6116" stroke-width="0.100439" stroke-linecap="round" stroke-linejoin="round"/>
<path d="M20.791 20.7709L21.2731 24.8487L23.9347 20.8613L20.791 20.7709Z" fill="#CD6116" stroke="#CD6116" stroke-width="0.100439" stroke-linecap="round" stroke-linejoin="round"/>
<path d="M23.1813 16.2812L17.5366 16.5323L18.0589 19.435L18.8926 17.6874L20.9013 18.6014L23.1813 16.2812Z" fill="#CD6116" stroke="#CD6116" stroke-width="0.100439" stroke-linecap="round" stroke-linejoin="round"/>
<path d="M11.1083 18.6014L13.1171 17.6874L13.9407 19.435L14.473 16.5323L8.8183 16.2812L11.1083 18.6014Z" fill="#CD6116" stroke="#CD6116" stroke-width="0.100439" stroke-linecap="round" stroke-linejoin="round"/>
<path d="M8.81879 16.2812L11.1892 20.9015L11.1088 18.6014L8.81879 16.2812Z" fill="#E4751F" stroke="#E4751F" stroke-width="0.100439" stroke-linecap="round" stroke-linejoin="round"/>
<path d="M20.9014 18.6014L20.801 20.9015L23.1814 16.2812L20.9014 18.6014Z" fill="#E4751F" stroke="#E4751F" stroke-width="0.100439" stroke-linecap="round" stroke-linejoin="round"/>
<path d="M14.4735 16.5323L13.9412 19.435L14.6041 22.86L14.7547 18.3503L14.4735 16.5323Z" fill="#E4751F" stroke="#E4751F" stroke-width="0.100439" stroke-linecap="round" stroke-linejoin="round"/>
<path d="M17.537 16.5323L17.2658 18.3403L17.3863 22.86L18.0593 19.435L17.537 16.5323Z" fill="#E4751F" stroke="#E4751F" stroke-width="0.100439" stroke-linecap="round" stroke-linejoin="round"/>
<path d="M18.0588 19.435L17.3859 22.86L17.868 23.1914L20.8008 20.9014L20.9012 18.6013L18.0588 19.435Z" fill="#F6851B" stroke="#F6851B" stroke-width="0.100439" stroke-linecap="round" stroke-linejoin="round"/>
<path d="M11.1085 18.6013L11.1889 20.9014L14.1217 23.1914L14.6038 22.86L13.9409 19.435L11.1085 18.6013Z" fill="#F6851B" stroke="#F6851B" stroke-width="0.100439" stroke-linecap="round" stroke-linejoin="round"/>
<path d="M18.1093 26.3453L18.1394 25.4112L17.8883 25.1902H14.1018L13.8707 25.4112L13.8908 26.3453L10.727 24.8488L11.8318 25.7527L14.0716 27.3095H17.9185L20.1683 25.7527L21.2731 24.8488L18.1093 26.3453Z" fill="#C0AD9E" stroke="#C0AD9E" stroke-width="0.100439" stroke-linecap="round" stroke-linejoin="round"/>
<path d="M17.8682 23.1914L17.386 22.86H14.6039L14.1218 23.1914L13.8707 25.4111L14.1017 25.1902H17.8882L18.1393 25.4111L17.8682 23.1914Z" fill="#161616" stroke="#161616" stroke-width="0.100439" stroke-linecap="round" stroke-linejoin="round"/>
<path d="M27.9528 11.4701L28.8065 7.37221L27.5309 3.56555L17.8687 10.7369L21.5849 13.8807L26.8379 15.4174L28.003 14.0615L27.5008 13.6999L28.3043 12.9667L27.6816 12.4846L28.4851 11.8719L27.9528 11.4701Z" fill="#763D16" stroke="#763D16" stroke-width="0.100439" stroke-linecap="round" stroke-linejoin="round"/>
<path d="M3.19458 7.37221L4.04832 11.4701L3.50594 11.8719L4.30946 12.4846L3.69678 12.9667L4.50029 13.6999L3.9981 14.0615L5.15315 15.4174L10.4061 13.8807L14.1224 10.7369L4.46012 3.56555L3.19458 7.37221Z" fill="#763D16" stroke="#763D16" stroke-width="0.100439" stroke-linecap="round" stroke-linejoin="round"/>
<path d="M26.8372 15.4175L21.5842 13.8807L23.1812 16.2812L20.8008 20.9015L23.9345 20.8613H28.6049L26.8372 15.4175Z" fill="#F6851B" stroke="#F6851B" stroke-width="0.100439" stroke-linecap="round" stroke-linejoin="round"/>
<path d="M10.4056 13.8807L5.15261 15.4175L3.40497 20.8613H8.06536L11.189 20.9015L8.81865 16.2812L10.4056 13.8807Z" fill="#F6851B" stroke="#F6851B" stroke-width="0.100439" stroke-linecap="round" stroke-linejoin="round"/>
<path d="M17.5365 16.5323L17.868 10.7369L19.3947 6.60889H12.615L14.1216 10.7369L14.4731 16.5323L14.5936 18.3603L14.6037 22.86H17.3859L17.406 18.3603L17.5365 16.5323Z" fill="#F6851B" stroke="#F6851B" stroke-width="0.100439" stroke-linecap="round" stroke-linejoin="round"/>
</svg>
