<?xml version="1.0" standalone="no"?>
<!DOCTYPE svg PUBLIC "-//W3C//DTD SVG 20010904//EN"
 "http://www.w3.org/TR/2001/REC-SVG-20010904/DTD/svg10.dtd">
<svg version="1.0" xmlns="http://www.w3.org/2000/svg"
 width="192.000000pt" height="192.000000pt" viewBox="0 0 192.000000 192.000000"
 preserveAspectRatio="xMidYMid meet">
<metadata>
Created by potrace 1.14, written by Peter Selinger 2001-2017
</metadata>
<g transform="translate(0.000000,192.000000) scale(0.100000,-0.100000)"
fill="#000000" stroke="none">
<path d="M970 1813 c-41 -47 -42 -47 -106 -48 -36 -1 -69 -6 -76 -13 -12 -12
-11 -18 17 -84 5 -13 1 -20 -16 -27 -13 -5 -58 -33 -99 -63 -270 -194 -423
-412 -380 -542 10 -31 9 -40 -4 -59 -139 -191 -175 -300 -132 -396 17 -37 17
-38 -8 -76 -57 -84 -77 -216 -41 -271 73 -112 271 -131 437 -42 53 28 60 29
76 16 22 -20 97 -58 137 -70 51 -15 116 -22 205 -22 139 1 216 20 293 73 l43
29 31 -19 c138 -88 339 -83 432 10 58 58 50 178 -19 294 l-23 38 23 41 c44 79
9 204 -99 352 -48 67 -49 69 -35 102 34 80 -25 209 -163 354 -66 71 -178 166
-238 205 -17 10 -24 20 -17 23 6 2 12 16 12 31 0 23 -9 31 -62 56 -57 27 -64
34 -75 71 -27 99 -51 107 -113 37z"/>
</g>
</svg>
